<svg width="769" height="224" viewBox="0 0 769 224" fill="none" xmlns="http://www.w3.org/2000/svg">
<path fill-rule="evenodd" clip-rule="evenodd" d="M657 0L649 16L641 32L633 48L625 64L617 80L609 96L601 112L593 128L585 144L577 160H593H609H613L621 176L629 192H613H597H581H565H549H533L541 208L549 224H565H581H597H613H629H645H661H677L669 208L661 192H677H693L685 176L677 160H689H705L706.5 157L708 160H724H740L732 144L724 128H721L729 112L737 96L745 80L753 64L761 48L769 32H753H741L733 16L725 0L717 16L709 32H705H689H673L681 16L689 0H673H657ZM665 16H649L657 32L649 48H633L641 64L633 80H617L625 96L617 112H601L609 128L601 144H585L593 160L601 144H617L625 160L633 144H649L657 160L665 144H681L689 160L697 144H700H713H716L724 160L732 144H716L714.5 141L713 144L706.5 131L700 144L698.5 141L697 144H681L673 128L681 112H697L705 128L713 112H729L721 96L729 80H745L737 64L745 48H761L753 32L745 48H729L721 32L713 48H697L689 32L681 48H665L657 32L665 16ZM673 64L681 48H697L705 64L697 80H681L673 64ZM665 80H681L689 96L681 112H665L657 96L665 80ZM649 80L641 64L649 48H665L673 64L665 80H649ZM649 112H665L673 128L665 144H649L641 128L649 112ZM633 112L641 128L633 144H617L609 128L617 112H633ZM633 112H649L657 96L649 80H633L625 96L633 112ZM713 80L721 96L713 112H697L689 96L697 80H713ZM713 80L705 64L713 48H729L737 64L729 80H713ZM665 16L673 0L681 16H665ZM717 16L725 32L733 16H717ZM669 176H685L677 192L669 176ZM653 176L661 160L669 176H653ZM645 192L653 176H637L629 160L621 176H637L645 192ZM653 208L645 192L637 208H621L613 192L605 208H589L581 192L573 208H557L549 192L541 208H557L565 224L573 208H589L597 224L605 208H621L629 224L637 208H653ZM653 208L661 224L669 208H653Z" fill="#625FAA"/>
<path fill-rule="evenodd" clip-rule="evenodd" d="M629 0L613 32L597 64L581 96L565 128L549 160L533 192H565H597H629L645 160H661H677H693H709L725 128L741 96L757 64L741 32H709L725 0H693H661H629ZM581 160H613L629 128H661H677H693L709 96L725 64L709 32H677H645L629 64L613 96L597 128L581 160Z" fill="#ECE984"/>
<path fill-rule="evenodd" clip-rule="evenodd" d="M348 16L340 0L332 16L324 32L316 48L308 64L300 80L292 96L284 112L276 128L268 144L260 160L252 176L244 192H228H212L220 208L228 224H244H260L268 208L276 192L284 176L292 160L300 144L308 128L316 112L324 96L332 80L340 64L348 48L356 32L348 16ZM340 32L332 16H348L340 32ZM332 48H316L324 64L316 80H300L308 96L300 112H284L292 128L284 144H268L276 160L268 176H252L260 192L252 208H236L228 192L220 208H236L244 224L252 208H268L260 192L268 176H284L276 160L284 144H300L292 128L300 112H316L308 96L316 80H332L324 64L332 48ZM332 48L340 32L348 48H332Z" fill="#625FAA"/>
<path fill-rule="evenodd" clip-rule="evenodd" d="M308 0L292 32L276 64L260 96L244 128L228 160L212 192H244L260 160L276 128L292 96L308 64L324 32L340 0H308Z" fill="#ECE984"/>
<path fill-rule="evenodd" clip-rule="evenodd" d="M120 16L128 0H144L136 16H120ZM128 32L120 16L112 32L104 48L96 64L88 80L80 96L72 112L64 128L56 144L48 160L40 176L32 192H16H0L8 208L16 224H32H48H64H80H96H112H128H144L152 208L160 192L168 176L176 160L184 144L192 128L200 112L208 96L216 80L224 64L232 48L240 32L232 16L224 0L216 16L208 32H192H176L184 16L192 0H176H160H144L152 16L136 16L128 32ZM136 48L128 32L120 48H104L112 64L104 80H88L96 96L88 112H72L80 128L72 144H56L64 160L56 176H40L48 192L40 208H24L16 192L8 208H24L32 224L40 208H56L64 224L72 208H88L96 224L104 208H120L128 224L136 208H152L144 192L152 176H168L160 160L168 144H184L176 128L184 112H200L192 96L200 80H216L208 64L216 48H232L224 32L232 16H216L224 32L216 48H200L192 32L184 48H168L160 32L168 16L184 16L176 0L168 16L152 16L160 32L152 48H136ZM144 64L152 48H168L176 64L168 80H152L144 64ZM136 80H152L160 96L152 112H136L128 96L136 80ZM120 80L112 64L120 48H136L144 64L136 80H120ZM120 112L128 96L120 80H104L96 96L104 112H88L80 128L88 144H72L64 160L72 176H56L48 192L56 208H72L80 192L88 208H104L112 192L120 208H136L144 192L136 176H152L160 160L152 144H168L176 128L168 112H184L192 96L184 80H200L208 64L200 48H184L176 64L184 80H168L160 96L168 112H152L144 128L136 112H120ZM112 128L104 112H120L112 128ZM120 144L128 128H144H160L152 144L144 160L136 176L128 192H112H96H80L72 176H88L96 160H112L120 144ZM104 144L96 160L88 144H104ZM104 144H120L112 128L104 144Z" fill="#625FAA"/>
<path fill-rule="evenodd" clip-rule="evenodd" d="M128 0L160 3.03595e-06H192H224L208 32L192 64L176 96H144L160 128L144 160L128 192H96H64L48 160H80H112L128 128L136 112H104H72L64 128L48 160L32 192H0L16 160L32 128L48 96L64 64L80 32L96 3.03595e-06L128 0ZM96 64L112 32L144 32L176 32L160 64L152 80H120H88L96 64Z" fill="#ECE984"/>
<path fill-rule="evenodd" clip-rule="evenodd" d="M556 0L564 16H548L556 0ZM556 32L564 16L572 32L564 48L556 32ZM548 48L556 32L548 16L540 32L532 48L524 64L516 80L508 96H492H476H460H444H428L436 112H427H420H411L419 96H403L395 112L387 128L379 144L371 160L363 176L355 192H339H323L331 208L339 224H355H371L363 208L355 192H371H387H403H419H435H438L446 208L454 224H470H486L478 208L470 192H460L468 176L476 160L484 144L492 128L500 112L508 96H524H540L548 80L556 64L564 48H548ZM540 64L548 48H532L540 64ZM532 80H548L540 64L532 80ZM532 80H516L524 96L532 80ZM484 112H500L492 96L484 112ZM476 128L484 112H468L460 96L452 112H436L444 128L436 144H443H452L460 160L452 176L447.5 167L443 176H427L419 160L427 144H420H411L403 128L411 112H395L403 128L395 144H379L387 160L379 176H363L371 192L379 176H395L403 192L411 176H427L435 192L443 176H452H459H468L460 160L468 144H484L476 128ZM476 128L468 144H452L444 128L452 112H468L476 128ZM411 176H395L387 160L395 144H411L419 160L411 176ZM462 208L454 192L446 208H462ZM462 208H478L470 224L462 208ZM347 208L339 192L331 208H347ZM347 208H363L355 224L347 208ZM423.5 119L419 128H428L423.5 119Z" fill="#625FAA"/>
<path fill-rule="evenodd" clip-rule="evenodd" d="M419 0L403 32L387 64L371 96L355 128L339 160L323 192H355L371 160L387 128L396.5 109L406 128L422 160L438 192H470L454 160L438 128L422 96H427H444H476H508L524 64L540 32L556 0H532H524H515H500H483H451H419ZM435 32L419 64H428H443H460H492L508 32H499H484H467H435Z" fill="#ECE984"/>
</svg>
