<svg width="879" height="224" viewBox="0 0 879 224" fill="none" xmlns="http://www.w3.org/2000/svg">
<path d="M546 32L530 -3.03595e-06L562 -2.38419e-07L546 32Z" fill="#ECE984"/>
<path fill-rule="evenodd" clip-rule="evenodd" d="M670 0L678 16H662L670 32L662 48L654 64L646 80L638 96H650L642 112L634 128H622L614 144L606 160H622H638L646 144L654 128H666L674 112L682 96H670L678 80L686 64L694 48L702 32L694 16L686 0H670ZM686 32L678 16H694L686 32ZM678 48H662L670 64L662 80H646L654 96L662 80H678L670 64L678 48ZM678 48L686 32L694 48H678ZM658 112H642L650 128L658 112ZM658 112H674L666 96L658 112ZM630 144H614L622 160L630 144ZM630 144H646L638 128L630 144ZM578 224L570 208H586L594 224H578ZM602 208L594 224H610H626H642H658H674H690H706L698 208L690 192H674H658H642H626H610H594H578H562L570 208L578 192L586 208H602ZM618 208L626 224L634 208H650L658 224L666 208H682L690 224L698 208H682L674 192L666 208H650L642 192L634 208H618ZM618 208L610 192L602 208H618Z" fill="#625FAA"/>
<path fill-rule="evenodd" clip-rule="evenodd" d="M638 32L654 0L686 3.03595e-06L670 32L654 64L638 96H654L638 128H622L606 160H638H670H674H702H706L690 192H686H658H654H622H590H558L574 160L590 128H606L622 96H606L622 64L638 32Z" fill="#ECE984"/>
<path fill-rule="evenodd" clip-rule="evenodd" d="M855 16L847 0H863L871 16H855ZM863 32L871 16L879 32L871 48L863 32ZM855 48L863 32L855 16H839L847 32L839 48L831 64L823 80L815 96H831H847L855 80L863 64L871 48H855ZM847 64L855 48H839L847 64ZM839 80H855L847 64L839 80ZM839 80H823L831 96L839 80ZM743 208L751 224H767H783L775 208L767 192H751H735L743 208ZM759 208L767 224L775 208H759ZM759 208H743L751 192L759 208ZM752 74L760 90L768 106L776 90L784 74H768H752ZM768 74L776 90H760L768 74Z" fill="#625FAA"/>
<path fill-rule="evenodd" clip-rule="evenodd" d="M779 0L763 32L747 64L763 96L779 64L795 32L811 3.03595e-06L779 0ZM815 32L831 3.03595e-06H863L847 32L831 64L815 96L799 128L787 152L783 160L771 184L767 192H735L739 184L751 160L755 152L767 128L783 96L799 64L815 32Z" fill="#ECE984"/>
<path fill-rule="evenodd" clip-rule="evenodd" d="M96 32L104 48H88L96 32ZM128 32H112H96H80L72 48L64 64H80H96L88 80L80 96H65L57 112L49 128H64L56 144L48 160H64H80H96H112H128H144L152 144L160 128H144H128H113L121 112L129 96H144L152 80L160 64H176H192L200 48L208 32H192H176H160H144H128ZM136 48L128 32L120 48H104L112 64L104 80H88L96 96L104 80H120L128 96L136 80H152L144 64L152 48L168 48L176 64L184 48L200 48L192 32L184 48L168 48L160 32L152 48L136 48ZM136 48L144 64L136 80H120L112 64L120 48L136 48ZM105 112H121L113 96L105 112ZM89 112L97 128L105 112H89ZM73 112L81 96L89 112H73ZM73 112H57L65 128L73 112ZM136 144L144 128L152 144H136ZM120 144L128 160L136 144H120ZM104 144L96 160L88 144H104ZM72 144H56L64 160L72 144ZM72 144H88L80 128L72 144ZM104 144L112 128L120 144H104ZM80 64L88 48H72L80 64ZM16 224L8 208H24L32 224H16ZM40 208L32 224H48H64H80H96H112H128H144L136 208L128 192H112H96H80H64H48H32H16H0L8 208L16 192L24 208H40ZM56 208L64 224L72 208H88L96 224L104 208H120L128 224L136 208H120L112 192L104 208H88L80 192L72 208H56ZM56 208L48 192L40 208H56Z" fill="#625FAA"/>
<path fill-rule="evenodd" clip-rule="evenodd" d="M96 3.03595e-06L128 0L144 3.03595e-06H160H176H192H208H224L208 32H192H176H160L144 32L128 32H112L96 64L112 96H128H144H160H176L160 128H144H128H112H96H64L48 160H80H96H112H128H144L128 192H112H96H80H64H32H0L16 160L32 128L48 96H80L64 64L80 32L96 3.03595e-06Z" fill="#ECE984"/>
<path fill-rule="evenodd" clip-rule="evenodd" d="M306 0L298 16L290 32L282 48L274 64L266 80L258 96H274H290H306H322H338H354L362 80L370 64L378 48L386 32L394 16L402 0H386H370H354H338H322H306ZM330 16L322 0L314 16H298L306 32L298 48H282L290 64L282 80H266L274 96L282 80H298L306 96L314 80H330L338 96L346 80H362L354 64L362 48H378L370 32L378 16L394 16L386 0L378 16L362 16L354 0L346 16L330 16ZM338 32L330 16L314 16L306 32L314 48H298L290 64L298 80H314L322 64L330 80H346L354 64L346 48H362L370 32L362 16L346 16L338 32ZM330 48H314L322 64L330 48ZM330 48L338 32L346 48H330ZM186 208L194 224H210H226L218 208L210 192H226H242H258L250 176H266L274 160H258L266 144L274 128H258H242L234 144L226 160L218 176L210 192H194H178L186 208ZM202 208L210 224L218 208H202ZM202 208H186L194 192L202 208ZM234 176H250L242 160L250 144H266L258 128L250 144H234L242 160L234 176ZM234 176L226 192L218 176H234ZM282 208L290 224H306H322L314 208L306 192H322H338L346 176L354 160L362 144L370 128H354H338L330 144L322 160L314 176L306 192H290H274L282 208ZM298 208L306 224L314 208H298ZM298 208H282L290 192L298 208ZM330 176H346L338 160L346 144H362L354 128L346 144H330L338 160L330 176ZM330 176L322 192L314 176H330Z" fill="#625FAA"/>
<path fill-rule="evenodd" clip-rule="evenodd" d="M338 3.03595e-06L306 0L274 3.03595e-06L258 32L242 64L226 96L210 128L194 160L178 192H210L226 160L242 128H274H306L290 160L274 192H306L322 160L338 128L354 96L370 64L386 32L370 3.03595e-06H338ZM338 64L322 96H290H258L274 64L290 32L322 32L354 32L338 64Z" fill="#ECE984"/>
<path fill-rule="evenodd" clip-rule="evenodd" d="M589 0L597 16H581L589 0ZM589 32L597 16L605 32L597 48L589 32ZM581 48L589 32L581 16L573 32L565 48L557 64L549 80L541 96H525H509H493H477H461L469 112H460H453H444L452 96H436L428 112L420 128L412 144L404 160L396 176L388 192H372H356L364 208L372 224H388H404L396 208L388 192H404H420H436H452H468H471L479 208L487 224H503H519L511 208L503 192H493L501 176L509 160L517 144L525 128L533 112L541 96H557H573L581 80L589 64L597 48H581ZM573 64L581 48H565L573 64ZM565 80H581L573 64L565 80ZM565 80H549L557 96L565 80ZM517 112H533L525 96L517 112ZM509 128L517 112H501L493 96L485 112H469L477 128L469 144H476H485L493 160L485 176L480.5 167L476 176H460L452 160L460 144H453H444L436 128L444 112H428L436 128L428 144H412L420 160L412 176H396L404 192L412 176H428L436 192L444 176H460L468 192L476 176H485H492H501L493 160L501 144H517L509 128ZM509 128L501 144H485L477 128L485 112H501L509 128ZM444 176H428L420 160L428 144H444L452 160L444 176ZM495 208L487 192L479 208H495ZM495 208H511L503 224L495 208ZM380 208L372 192L364 208H380ZM380 208H396L388 224L380 208ZM456.5 119L452 128H461L456.5 119Z" fill="#625FAA"/>
<path fill-rule="evenodd" clip-rule="evenodd" d="M436 32L452 0L484 3.03595e-06H516H533H548H557H565H589L573 32L557 64L541 96H509H477H460H455L471 128L487 160L503 192H471L455 160L439 128L429.5 109L420 128L404 160L388 192H356L372 160L388 128L404 96L420 64L436 32ZM468 32L452 64H461H476H493H525L541 32H532H517H500L468 32Z" fill="#ECE984"/>
</svg>
