<svg width="119" height="80" viewBox="0 0 119 80" fill="none" xmlns="http://www.w3.org/2000/svg">
<path d="M1 39C4.80834 39 8.57938 39.7501 12.0978 41.2075C15.6163 42.6649 18.8132 44.801 21.5061 47.4939C24.199 50.1868 26.3351 53.3837 27.7925 56.9022C29.2499 60.4206 30 64.1917 30 68L29.0578 68C29.0578 64.3154 28.3321 60.6669 26.922 57.2627C25.512 53.8586 23.4453 50.7655 20.8399 48.1601C18.2345 45.5547 15.1414 43.488 11.7373 42.078C8.33313 40.6679 4.68461 39.9422 1 39.9422L1 39Z" fill="#ECE984"/>
<path d="M30 9.00001C30 12.8083 29.2499 16.5794 27.7925 20.0978C26.3351 23.6163 24.199 26.8132 21.5061 29.5061C18.8132 32.199 15.6163 34.3351 12.0978 35.7925C8.57938 37.2499 4.80833 38 0.999995 38L0.999995 37.0454C4.68297 37.0454 8.32988 36.32 11.7325 34.9106C15.1351 33.5012 18.2268 31.4353 20.8311 28.8311C23.4353 26.2268 25.5012 23.1351 26.9106 19.7325C28.32 16.3299 29.0454 12.683 29.0454 9L30 9.00001Z" fill="#ECE984"/>
<path d="M1 39L1 38L84 38L84 39L1 39Z" fill="#ECE984"/>
</svg>
