<svg width="32" height="40" viewBox="0 0 32 40" fill="none" xmlns="http://www.w3.org/2000/svg">
<g clip-path="url(#clip0_179_11736)">
<path fill-rule="evenodd" clip-rule="evenodd" d="M32 8L16 16L16 2.16164e-06L-2.3922e-06 8L-16 -4.00549e-06L-16 16L-32 8L-32 24L-16 32L-3.79097e-06 40L16 32L32 24L32 8ZM-3.09158e-06 24L-16 16L-16 32L-3.09158e-06 24ZM-3.09158e-06 24L16 32L16 16L-3.09158e-06 24ZM-16 -0.999999L-1.64911e-06 -9L-3.42532e-06 -12L16 -4L-4.1247e-06 4L-4.25584e-06 7L-16 -0.999999Z" fill="#625FAA"/>
</g>
<defs>
<clipPath id="clip0_179_11736">
<rect width="32" height="40" fill="white"/>
</clipPath>
</defs>
</svg>
