<svg width="40" height="40" viewBox="0 0 40 40" fill="none" xmlns="http://www.w3.org/2000/svg">
<g clip-path="url(#clip0_191_11750)">
<path fill-rule="evenodd" clip-rule="evenodd" d="M40 56L32 72L16 72L24 56L40 56ZM32 40L40 56L48 40L40 24L36 16L44 -3.68755e-06L28 -5.08632e-06L32 7.99999L16 7.99999L24 24L16 24L8 24L-5.72077e-07 24L7.99999 40L12 32L16 40L7.99999 56L24 56L32 40ZM32 40L40 24L24 24L32 40Z" fill="#625FAA"/>
</g>
<defs>
<clipPath id="clip0_191_11750">
<rect width="40" height="40" fill="white" transform="translate(40) rotate(90)"/>
</clipPath>
</defs>
</svg>
