<svg width="895" height="474" viewBox="0 0 895 474" fill="none" xmlns="http://www.w3.org/2000/svg">
<path d="M426 176L434 192H418L426 176Z" fill="#625FAA"/>
<path d="M442 176L434 160L450 160L442 176Z" fill="#625FAA"/>
<path d="M546 32L530 -2.79753e-06L562 0L546 32Z" fill="#ECE984"/>
<path fill-rule="evenodd" clip-rule="evenodd" d="M670 0L678 16H662L670 32L662 48L654 64L646 80L638 96H650L642 112L634 128H622L614 144L606 160H622H638L646 144L654 128H666L674 112L682 96H670L678 80L686 64L694 48L702 32L694 16L686 0H670ZM686 32L678 16H694L686 32ZM678 48H662L670 64L662 80H646L654 96L662 80H678L670 64L678 48ZM678 48L686 32L694 48H678ZM658 112H642L650 128L658 112ZM658 112H674L666 96L658 112ZM630 144H614L622 160L630 144ZM630 144H646L638 128L630 144ZM578 224L570 208H586L594 224H578ZM602 208L594 224H610H626H642H658H674H690H706L698 208L690 192H674H658H642H626H610H594H578H562L570 208L578 192L586 208H602ZM618 208L626 224L634 208H650L658 224L666 208H682L690 224L698 208H682L674 192L666 208H650L642 192L634 208H618ZM618 208L610 192L602 208H618Z" fill="#625FAA"/>
<path fill-rule="evenodd" clip-rule="evenodd" d="M638 32L654 0L686 3.03595e-06L670 32L654 64L638 96H654L638 128H622L606 160H638H670H674H702H706L690 192H686H658H654H622H590H558L574 160L590 128H606L622 96H606L622 64L638 32Z" fill="#ECE984"/>
<path fill-rule="evenodd" clip-rule="evenodd" d="M855 16L847 0H863L871 16H855ZM863 32L871 16L879 32L871 48L863 32ZM855 48L863 32L855 16H839L847 32L839 48L831 64L823 80L815 96H831H847L855 80L863 64L871 48H855ZM847 64L855 48H839L847 64ZM839 80H855L847 64L839 80ZM839 80H823L831 96L839 80ZM743 208L751 224H767H783L775 208L767 192H751H735L743 208ZM759 208L767 224L775 208H759ZM759 208H743L751 192L759 208ZM752 74L760 90L768 106L776 90L784 74H768H752ZM768 74L776 90H760L768 74Z" fill="#625FAA"/>
<path fill-rule="evenodd" clip-rule="evenodd" d="M779 0L763 32L747 64L763 96L779 64L795 32L811 3.03595e-06L779 0ZM815 32L831 3.03595e-06H863L847 32L831 64L815 96L799 128L787 152L783 160L771 184L767 192H735L739 184L751 160L755 152L767 128L783 96L799 64L815 32Z" fill="#ECE984"/>
<path fill-rule="evenodd" clip-rule="evenodd" d="M96 32L104 48H88L96 32ZM128 32H112H96H80L72 48L64 64H80H96L88 80L80 96H65L57 112L49 128H64L56 144L48 160H64H80H96H112H128H144L152 144L160 128H144H128H113L121 112L129 96H144L152 80L160 64H176H192L200 48L208 32H192H176H160H144H128ZM136 48L128 32L120 48H104L112 64L104 80H88L96 96L104 80H120L128 96L136 80H152L144 64L152 48L168 48L176 64L184 48L200 48L192 32L184 48L168 48L160 32L152 48L136 48ZM136 48L144 64L136 80H120L112 64L120 48L136 48ZM105 112H121L113 96L105 112ZM89 112L97 128L105 112H89ZM73 112L81 96L89 112H73ZM73 112H57L65 128L73 112ZM136 144L144 128L152 144H136ZM120 144L128 160L136 144H120ZM104 144L96 160L88 144H104ZM72 144H56L64 160L72 144ZM72 144H88L80 128L72 144ZM104 144L112 128L120 144H104ZM80 64L88 48H72L80 64ZM16 224L8 208H24L32 224H16ZM40 208L32 224H48H64H80H96H112H128H144L136 208L128 192H112H96H80H64H48H32H16H0L8 208L16 192L24 208H40ZM56 208L64 224L72 208H88L96 224L104 208H120L128 224L136 208H120L112 192L104 208H88L80 192L72 208H56ZM56 208L48 192L40 208H56Z" fill="#625FAA"/>
<path fill-rule="evenodd" clip-rule="evenodd" d="M96 3.03595e-06L128 0L144 3.03595e-06H160H176H192H208H224L208 32H192H176H160L144 32L128 32H112L96 64L112 96H128H144H160H176L160 128H144H128H112H96H64L48 160H80H96H112H128H144L128 192H112H96H80H64H32H0L16 160L32 128L48 96H80L64 64L80 32L96 3.03595e-06Z" fill="#ECE984"/>
<path fill-rule="evenodd" clip-rule="evenodd" d="M298 16L306 0H322L314 16H298ZM306 32L298 16L290 32L282 48L274 64L266 80L258 96H274H290H306H322H338H354L362 80L370 64L378 48L386 32L394 16L402 0H386H370H354H338H322L330 16L314 16L306 32ZM314 48L306 32L298 48H282L290 64L282 80H266L274 96L282 80H298L306 96L314 80H330L338 96L346 80H362L354 64L362 48H378L370 32L378 16L394 16L386 0L378 16L362 16L354 0L346 16L330 16L338 32L330 48H314ZM322 64L314 80H298L290 64L298 48H314L322 64ZM346 48L354 64L346 80H330L322 64L330 48H346ZM346 48H362L370 32L362 16L346 16L338 32L346 48ZM194 224L186 208H202L210 224H194ZM218 208H202L194 192H210L218 208ZM218 176L210 192H226H242H258L250 176H266L258 160L266 144L274 128H258H242L234 144L226 160L218 176ZM234 176H250L242 160L250 144H266L258 128L250 144H234L242 160L234 176ZM234 176L226 192L218 176H234ZM218 208L210 224H226L218 208ZM194 192L186 208L178 192H194ZM290 224L282 208H298L306 224H290ZM314 208H298L290 192H306L314 208ZM314 176L306 192H322H338L346 176L354 160L362 144L370 128H354H338L330 144L322 160L314 176ZM330 176H346L338 160L346 144H362L354 128L346 144H330L338 160L330 176ZM330 176L322 192L314 176H330ZM314 208L306 224H322L314 208ZM290 192L282 208L274 192H290Z" fill="#625FAA"/>
<path fill-rule="evenodd" clip-rule="evenodd" d="M338 3.03595e-06L306 0L274 3.03595e-06L258 32L242 64L226 96L210 128L194 160L178 192H210L226 160L242 128H274H306L290 160L274 192H306L322 160L338 128L354 96L370 64L386 32L370 3.03595e-06H338ZM338 64L322 96H290H258L274 64L290 32L322 32L354 32L338 64Z" fill="#ECE984"/>
<path fill-rule="evenodd" clip-rule="evenodd" d="M589 0L597 16H581L589 0ZM589 32L597 16L605 32L597 48L589 32ZM581 48L589 32L581 16L573 32L565 48L557 64L549 80L541 96H525H509H493H477H461L469 112H460H453H444L452 96H436L428 112L420 128L412 144L404 160L396 176L388 192H372H356L364 208L372 224H388H404L396 208L388 192H404H420H436H452H468H471L479 208L487 224H503H519L511 208L503 192H493L501 176L509 160L517 144L525 128L533 112L541 96H557H573L581 80L589 64L597 48H581ZM573 64L581 48H565L573 64ZM565 80H581L573 64L565 80ZM565 80H549L557 96L565 80ZM517 112H533L525 96L517 112ZM509 128L517 112H501L493 96L485 112H469L477 128L469 144H476H485L493 160L485 176L480.5 167L476 176H460L452 160L460 144H453H444L436 128L444 112H428L436 128L428 144H412L420 160L412 176H396L404 192L412 176H428L436 192L444 176H460L468 192L476 176H485H492H501L493 160L501 144H517L509 128ZM509 128L501 144H485L477 128L485 112H501L509 128ZM444 176H428L420 160L428 144H444L452 160L444 176ZM495 208L487 192L479 208H495ZM495 208H511L503 224L495 208ZM380 208L372 192L364 208H380ZM380 208H396L388 224L380 208ZM456.5 119L452 128H461L456.5 119Z" fill="#625FAA"/>
<path fill-rule="evenodd" clip-rule="evenodd" d="M436 32L452 0L484 3.03595e-06H516H533H548H557H565H589L573 32L557 64L541 96H509H477H460H455L471 128L487 160L503 192H471L455 160L439 128L429.5 109L420 128L404 160L388 192H356L372 160L388 128L404 96L420 64L436 32ZM468 32L452 64H461H476H493H525L541 32H532H517H500L468 32Z" fill="#ECE984"/>
<path fill-rule="evenodd" clip-rule="evenodd" d="M657 250L649 266L641 282L633 298L625 314L617 330L609 346L601 362L593 378L585 394L577 410H593H609H613L621 426L629 442H613H597H581H565H549H533L541 458L549 474H565H581H597H613H629H645H661H677L669 458L661 442H677H693L685 426L677 410H689H705L706.5 407L708 410H724H740L732 394L724 378H721L729 362L737 346L745 330L753 314L761 298L769 282H753H741L733 266L725 250L717 266L709 282H705H689H673L681 266L689 250H673H657ZM665 266H649L657 282L649 298H633L641 314L633 330H617L625 346L617 362H601L609 378L601 394H585L593 410L601 394H617L625 410L633 394H649L657 410L665 394H681L689 410L697 394H700H713H716L724 410L732 394H716L714.5 391L713 394L706.5 381L700 394L698.5 391L697 394H681L673 378L681 362H697L705 378L713 362H729L721 346L729 330H745L737 314L745 298H761L753 282L745 298H729L721 282L713 298H697L689 282L681 298H665L657 282L665 266ZM673 314L681 298H697L705 314L697 330H681L673 314ZM665 330H681L689 346L681 362H665L657 346L665 330ZM649 330L641 314L649 298H665L673 314L665 330H649ZM649 362H665L673 378L665 394H649L641 378L649 362ZM633 362L641 378L633 394H617L609 378L617 362H633ZM633 362H649L657 346L649 330H633L625 346L633 362ZM713 330L721 346L713 362H697L689 346L697 330H713ZM713 330L705 314L713 298H729L737 314L729 330H713ZM665 266L673 250L681 266H665ZM717 266L725 282L733 266H717ZM669 426H685L677 442L669 426ZM653 426L661 410L669 426H653ZM645 442L653 426H637L629 410L621 426H637L645 442ZM653 458L645 442L637 458H621L613 442L605 458H589L581 442L573 458H557L549 442L541 458H557L565 474L573 458H589L597 474L605 458H621L629 474L637 458H653ZM653 458L661 474L669 458H653Z" fill="#625FAA"/>
<path fill-rule="evenodd" clip-rule="evenodd" d="M629 250L613 282L597 314L581 346L565 378L549 410L533 442H565H597H629L645 410H661H677H693H709L725 378L741 346L757 314L741 282H709L725 250H693H661H629ZM581 410H613L629 378H661H677H693L709 346L725 314L709 282H677H645L629 314L613 346L597 378L581 410Z" fill="#ECE984"/>
<path fill-rule="evenodd" clip-rule="evenodd" d="M348 266L340 250L332 266L324 282L316 298L308 314L300 330L292 346L284 362L276 378L268 394L260 410L252 426L244 442H228H212L220 458L228 474H244H260L268 458L276 442L284 426L292 410L300 394L308 378L316 362L324 346L332 330L340 314L348 298L356 282L348 266ZM340 282L332 266H348L340 282ZM332 298H316L324 314L316 330H300L308 346L300 362H284L292 378L284 394H268L276 410L268 426H252L260 442L252 458H236L228 442L220 458H236L244 474L252 458H268L260 442L268 426H284L276 410L284 394H300L292 378L300 362H316L308 346L316 330H332L324 314L332 298ZM332 298L340 282L348 298H332Z" fill="#625FAA"/>
<path fill-rule="evenodd" clip-rule="evenodd" d="M308 250L292 282L276 314L260 346L244 378L228 410L212 442H244L260 410L276 378L292 346L308 314L324 282L340 250H308Z" fill="#ECE984"/>
<path fill-rule="evenodd" clip-rule="evenodd" d="M120 266L128 250H144L136 266H120ZM128 282L120 266L112 282L104 298L96 314L88 330L80 346L72 362L64 378L56 394L48 410L40 426L32 442H16H0L8 458L16 474H32H48H64H80H96H112H128H144L152 458L160 442L168 426L176 410L184 394L192 378L200 362L208 346L216 330L224 314L232 298L240 282L232 266L224 250L216 266L208 282H192H176L184 266L192 250H176H160H144L152 266L136 266L128 282ZM136 298L128 282L120 298H104L112 314L104 330H88L96 346L88 362H72L80 378L72 394H56L64 410L56 426H40L48 442L40 458H24L16 442L8 458H24L32 474L40 458H56L64 474L72 458H88L96 474L104 458H120L128 474L136 458H152L144 442L152 426H168L160 410L168 394H184L176 378L184 362H200L192 346L200 330H216L208 314L216 298H232L224 282L232 266H216L224 282L216 298H200L192 282L184 298H168L160 282L168 266L184 266L176 250L168 266L152 266L160 282L152 298H136ZM144 314L152 298H168L176 314L168 330H152L144 314ZM136 330H152L160 346L152 362H136L128 346L136 330ZM120 330L112 314L120 298H136L144 314L136 330H120ZM120 362L128 346L120 330H104L96 346L104 362H88L80 378L88 394H72L64 410L72 426H56L48 442L56 458H72L80 442L88 458H104L112 442L120 458H136L144 442L136 426H152L160 410L152 394H168L176 378L168 362H184L192 346L184 330H200L208 314L200 298H184L176 314L184 330H168L160 346L168 362H152L144 378L136 362H120ZM112 378L104 362H120L112 378ZM120 394L128 378H144H160L152 394L144 410L136 426L128 442H112H96H80L72 426H88L96 410H112L120 394ZM104 394L96 410L88 394H104ZM104 394H120L112 378L104 394Z" fill="#625FAA"/>
<path fill-rule="evenodd" clip-rule="evenodd" d="M128 250L160 250H192H224L208 282L192 314L176 346H144L160 378L144 410L128 442H96H64L48 410H80H112L128 378L136 362H104H72L64 378L48 410L32 442H0L16 410L32 378L48 346L64 314L80 282L96 250L128 250ZM96 314L112 282L144 282L176 282L160 314L152 330H120H88L96 314Z" fill="#ECE984"/>
<path fill-rule="evenodd" clip-rule="evenodd" d="M556 250L564 266H548L556 250ZM556 282L564 266L572 282L564 298L556 282ZM548 298L556 282L548 266L540 282L532 298L524 314L516 330L508 346H492H476H460H444H428L436 362H427H420H411L419 346H403L395 362L387 378L379 394L371 410L363 426L355 442H339H323L331 458L339 474H355H371L363 458L355 442H371H387H403H419H435H438L446 458L454 474H470H486L478 458L470 442H460L468 426L476 410L484 394L492 378L500 362L508 346H524H540L548 330L556 314L564 298H548ZM540 314L548 298H532L540 314ZM532 330H548L540 314L532 330ZM532 330H516L524 346L532 330ZM484 362H500L492 346L484 362ZM476 378L484 362H468L460 346L452 362H436L444 378L436 394H443H452L460 410L452 426L447.5 417L443 426H427L419 410L427 394H420H411L403 378L411 362H395L403 378L395 394H379L387 410L379 426H363L371 442L379 426H395L403 442L411 426H427L435 442L443 426H452H459H468L460 410L468 394H484L476 378ZM476 378L468 394H452L444 378L452 362H468L476 378ZM411 426H395L387 410L395 394H411L419 410L411 426ZM462 458L454 442L446 458H462ZM462 458H478L470 474L462 458ZM347 458L339 442L331 458H347ZM347 458H363L355 474L347 458ZM423.5 369L419 378H428L423.5 369Z" fill="#625FAA"/>
<path fill-rule="evenodd" clip-rule="evenodd" d="M419 250L403 282L387 314L371 346L355 378L339 410L323 442H355L371 410L387 378L396.5 359L406 378L422 410L438 442H470L454 410L438 378L422 346H427H444H476H508L524 314L540 282L556 250H532H524H515H500H483H451H419ZM435 282L419 314H428H443H460H492L508 282H499H484H467H435Z" fill="#ECE984"/>
<path d="M882.644 8C882.644 7.18687 882.843 6.44444 883.242 5.77273C883.641 5.10101 884.174 4.56818 884.841 4.17424C885.513 3.77525 886.255 3.57576 887.068 3.57576C887.775 3.57576 888.429 3.7298 889.03 4.03788C889.631 4.34091 890.129 4.75758 890.523 5.28788C890.917 5.81818 891.157 6.41414 891.242 7.07576H889.273C889.182 6.60606 888.924 6.22222 888.5 5.92424C888.081 5.62121 887.604 5.4697 887.068 5.4697C886.604 5.4697 886.179 5.58333 885.795 5.81061C885.412 6.03788 885.106 6.34344 884.879 6.72727C884.652 7.10606 884.538 7.5303 884.538 8C884.538 8.46465 884.652 8.88889 884.879 9.27273C885.106 9.65657 885.412 9.96212 885.795 10.1894C886.179 10.4167 886.604 10.5303 887.068 10.5303C887.604 10.5303 888.061 10.3813 888.439 10.0833C888.818 9.7803 889.056 9.39394 889.151 8.92424H891.121C891.035 9.58586 890.806 10.1818 890.432 10.7121C890.058 11.2424 889.581 11.6616 889 11.9697C888.419 12.2727 887.775 12.4242 887.068 12.4242C886.255 12.4242 885.513 12.2273 884.841 11.8333C884.174 11.4343 883.641 10.899 883.242 10.2273C882.843 9.55556 882.644 8.81313 882.644 8ZM887 16C885.899 16 884.864 15.7929 883.894 15.3788C882.929 14.9646 882.078 14.3914 881.341 13.6591C880.609 12.9217 880.033 12.0707 879.614 11.1061C879.2 10.1414 878.995 9.10606 879 8C879.005 6.89394 879.215 5.85859 879.629 4.89394C880.048 3.92929 880.624 3.08081 881.356 2.34849C882.088 1.61111 882.937 1.03535 883.902 0.621212C884.866 0.207071 885.899 0 887 0C888.106 0 889.141 0.207071 890.106 0.621212C891.076 1.03535 891.924 1.61111 892.651 2.34849C893.384 3.08081 893.957 3.92929 894.371 4.89394C894.785 5.85859 894.995 6.89394 895 8C895.005 9.10606 894.8 10.1414 894.386 11.1061C893.972 12.0707 893.399 12.9217 892.667 13.6591C891.934 14.3914 891.083 14.9646 890.114 15.3788C889.144 15.7929 888.106 16 887 16ZM887 13.9848C887.828 13.9848 888.606 13.8308 889.333 13.5227C890.061 13.2146 890.697 12.7879 891.242 12.2424C891.793 11.6919 892.222 11.0556 892.53 10.3333C892.838 9.60606 892.99 8.83081 892.985 8.00758C892.985 7.17929 892.828 6.40152 892.515 5.67424C892.207 4.94697 891.778 4.31061 891.227 3.76515C890.682 3.21465 890.048 2.78535 889.326 2.47727C888.604 2.16919 887.828 2.01515 887 2.01515C886.177 2.01515 885.404 2.16919 884.682 2.47727C883.96 2.78535 883.323 3.21465 882.773 3.76515C882.227 4.31566 881.798 4.95455 881.485 5.68182C881.172 6.40404 881.015 7.17929 881.015 8.00758C881.01 8.82576 881.162 9.59848 881.47 10.3258C881.783 11.048 882.212 11.6843 882.758 12.2348C883.308 12.7803 883.944 13.2096 884.667 13.5227C885.394 13.8308 886.172 13.9848 887 13.9848Z" fill="#ECE984"/>
</svg>
