<svg width="40" height="40" viewBox="0 0 40 40" fill="none" xmlns="http://www.w3.org/2000/svg">
<g clip-path="url(#clip0_191_11751)">
<path fill-rule="evenodd" clip-rule="evenodd" d="M4.80012e-06 56L8 72L24 72L16 56L4.80012e-06 56ZM8 40L4.80012e-06 56L-8 40L5.81729e-06 24L4.00001 16L-3.99999 -3.68755e-06L12 -5.08632e-06L8 7.99999L24 7.99999L16 24L24 24L32 24L40 24L32 40L28 32L24 40L32 56L16 56L8 40ZM8 40L5.81729e-06 24L16 24L8 40Z" fill="#625FAA"/>
</g>
<defs>
<clipPath id="clip0_191_11751">
<rect width="40" height="40" fill="white" transform="translate(0 40) rotate(-90)"/>
</clipPath>
</defs>
</svg>
