<svg width="177" height="96" viewBox="0 0 177 96" fill="none" xmlns="http://www.w3.org/2000/svg">
<path d="M7.75012 66.1784C7.75012 69.9219 7.30714 73.5781 6.85727 77.2895C6.55271 79.8021 4.22075 86.7906 5.46838 80.0673C7.11029 71.2192 15.2438 62.0697 20.7462 74.9086C21.1756 75.9106 20.9106 82.556 21.2422 79.3232C21.7035 74.8251 21.8548 64.676 28.0874 64.3927C35.4288 64.059 33.643 77.8012 33.643 82.2498" stroke="#625FAA" stroke-width="3" stroke-linecap="round"/>
<path d="M41.6787 76.0002C45.9654 76.0002 56.932 75.8008 58.4942 70.5934C60.2632 64.6966 53.4449 65.2859 49.8136 65.2859C43.3767 65.2859 45.2501 75.2451 45.2501 79.5716C45.2501 88.4049 51.6445 82.7134 55.9644 79.5716" stroke="#625FAA" stroke-width="3" stroke-linecap="round"/>
<path d="M74.3149 68.4839C74.0151 73.7301 72.7895 89.4381 72.899 84.1845C72.9561 81.4421 73.2208 73.807 76.7376 72.5113C79.5383 71.4795 80.7931 74.7229 81.0482 76.9163C81.2804 78.9136 81.1207 80.8215 81.7247 82.7843C82.8206 86.3461 85.8312 84.3415 88.1905 83.2091" stroke="#625FAA" stroke-width="3" stroke-linecap="round"/>
<path d="M97.5352 66.7847V91.4211" stroke="#625FAA" stroke-width="3" stroke-linecap="round"/>
<path d="M88.1904 75.5631C91.0865 73.466 95.3405 72.5641 98.6994 71.5986C103.925 70.0965 109.118 69.3424 114.526 69.05" stroke="#625FAA" stroke-width="3" stroke-linecap="round"/>
<path d="M122.738 71.5988C119.931 74.6064 119.652 78.0535 120.079 82.0449C120.194 83.1132 120.335 86.7521 121.479 87.3623C122.602 87.9609 125.381 83.2116 125.727 82.6899C127.547 79.9483 129.239 76.9962 129.912 73.7384C130.089 72.881 130.486 70.7591 129.692 70.0256C128.541 68.9631 125.578 69.9271 124.374 70.3088C122.047 71.0467 120.941 71.7946 119.906 73.8642" stroke="#625FAA" stroke-width="3" stroke-linecap="round"/>
<path d="M136.047 70.4661C138.645 70.4057 141.079 69.8327 143.599 69.2391C145.436 68.8062 146.393 68.3799 147.217 70.183C147.409 70.6032 148.048 72.1372 148.79 71.8191C150.205 71.2129 149.295 71.4269 148.177 72.5113C145.955 74.6664 139.029 80.2992 141.034 84.3103C141.605 85.4523 143.921 86.3203 144.999 86.6702C148.009 87.6476 150.79 86.781 153.604 85.7577" stroke="#625FAA" stroke-width="3" stroke-linecap="round"/>
<path d="M170.878 67.6343C170.086 67.5552 169.336 67.2095 168.534 67.1152C165.467 66.7544 162.987 68.8928 161.218 71.2055C159.745 73.1328 158.759 75.7118 159.457 78.1433C159.973 79.9434 161.655 81.0945 162.823 82.4539C163.543 83.2913 164.915 85.5435 163.736 86.5914C162.943 87.2964 161.617 87.1438 160.652 87.1735C158.83 87.2296 157.258 87.6098 155.586 88.3062" stroke="#625FAA" stroke-width="3" stroke-linecap="round"/>
<path d="M1.80811 32.866C2.68474 25.6338 7.23774 18.9198 10.9401 12.8578C11.0645 12.6541 13.5694 7.17245 14.4492 8.9998C15.9022 12.0175 16.493 15.5628 17.4043 18.7679C17.549 19.2771 17.872 21.8494 18.9228 20.4301C21.0828 17.5128 22.349 13.9199 24.0531 10.7441C26.3825 6.40301 27.8239 13.0686 28.5268 14.9715C30.5215 20.3719 32.01 25.8649 33.575 31.3885" stroke="#625FAA" stroke-width="3" stroke-linecap="round"/>
<path d="M41.7011 15.1357C41.7011 17.977 41.455 20.9821 41.9473 23.7957C42.7108 28.1585 45.2496 23.2408 46.1132 21.7025C46.6837 20.6862 49.2521 13.7988 48.9246 18.5012C48.5645 23.6715 48.2274 28.9722 46.9751 34.0153C45.9151 38.2838 44.8595 42.493 39.8131 41.7313C37.6674 41.4074 41.2346 37.3828 42.9118 36.0059C50.8399 29.497 60.0857 25.1339 69.0354 20.3071" stroke="#625FAA" stroke-width="3" stroke-linecap="round"/>
</svg>
