<svg width="288" height="111" viewBox="0 0 288 111" fill="none" xmlns="http://www.w3.org/2000/svg">
<path d="M265.999 40.8515C271.008 38.2275 275.696 35.5997 277.234 29.7574C277.967 26.9711 272.403 31.933 272.038 32.6012C270.048 36.238 268.287 41.6801 269.545 45.872C270.79 50.0237 276.425 49.6987 279.902 49.6987" stroke="#625FAA" stroke-width="3" stroke-linecap="round"/>
<path d="M32.3164 2.20215C30.9246 13.2206 29.4491 35.9733 19.1743 42.8231" stroke="#625FAA" stroke-width="3" stroke-linecap="round"/>
<path d="M19.1743 12.9546C36.4971 12.9546 53.3773 16.5388 70.5479 16.5388" stroke="#625FAA" stroke-width="3" stroke-linecap="round"/>
<path d="M44.264 22.5125C43.3083 28.7241 40.4154 35.0689 38.3567 40.9645C37.1383 44.4534 35.747 48.1868 35.4362 51.9162C35.4088 52.2449 38.9654 48.7014 39.4186 48.2656C43.5324 44.31 42.3124 45.0764 46.6534 47.0709C51.9894 49.5226 59.7654 44.8267 64.5745 42.8229" stroke="#625FAA" stroke-width="3" stroke-linecap="round"/>
<path d="M81.3005 30.8755C80.2994 38.1185 79.0804 45.2191 77.7163 52.3807" stroke="#625FAA" stroke-width="3" stroke-linecap="round"/>
<path d="M96.8325 32.0703C83.2502 32.4948 97.9823 54.7703 89.6641 54.7703" stroke="#625FAA" stroke-width="3" stroke-linecap="round"/>
<path d="M126.972 35.7961V49.6989" stroke="#625FAA" stroke-width="3" stroke-linecap="round"/>
<path d="M129.5 27.5808C124.576 26.6201 125.834 27.7153 126.34 23.1572" stroke="#625FAA" stroke-width="3" stroke-linecap="round"/>
<path d="M82.1042 21.8936C79.7773 26.6929 81.7066 22.877 82.7362 24.4213" stroke="#625FAA" stroke-width="3" stroke-linecap="round"/>
<path d="M145.298 29.4766C137.168 32.4632 141.686 38.8213 145.017 44.1517C146.608 46.6965 148.388 49.9715 148.388 53.069C148.388 57.9885 137.73 48.8663 137.083 48.4348" stroke="#625FAA" stroke-width="3" stroke-linecap="round"/>
<path d="M168.68 27.5808C169.055 29.059 172.113 46.5742 175.28 41.5537C176.984 38.8545 178.1 35.861 179.283 32.9172C180.56 29.7371 180.9 30.9109 181.459 33.6896C181.786 35.3112 182.913 47.7161 185.813 45.0645C192.653 38.811 197.667 30.37 203.437 23.1572" stroke="#625FAA" stroke-width="3" stroke-linecap="round"/>
<path d="M205.965 20.6294C205.965 27.4115 207.316 35.9732 205.649 42.642C204.982 45.3083 208.614 38.495 209.475 37.4812C211.786 34.7622 212.958 39.9684 214.145 42.0452C215.393 44.2292 216.438 44.2453 218.603 43.3793" stroke="#625FAA" stroke-width="3" stroke-linecap="round"/>
<path d="M226.819 35.164C231.901 37.012 236.065 35.2914 237.421 29.617C237.931 27.4847 236.594 25.6616 234.964 28.1074C233.437 30.3975 228.494 47.5285 235.666 42.7473" stroke="#625FAA" stroke-width="3" stroke-linecap="round"/>
<path d="M243.881 29.4768C246.959 29.4768 249.338 28.8694 251.465 31.2322C252.918 32.8471 254.661 32.9689 256.38 31.8641C259.03 30.1602 252.771 37.0716 251.465 39.9389C250.083 42.9708 248.555 47.0832 249.077 50.5415C249.526 53.5141 260.263 49.4073 261.576 49.067" stroke="#625FAA" stroke-width="3" stroke-linecap="round"/>
<path d="M22.3271 61.0786C20.1641 75.4328 17.1118 89.5435 17.1118 104.104" stroke="#625FAA" stroke-width="3" stroke-linecap="round"/>
<path d="M1.79199 104.105C9.16208 104.105 17.1114 104.814 24.2828 103.127" stroke="#625FAA" stroke-width="3" stroke-linecap="round"/>
<path d="M5.05176 63.6863C15.4185 63.8344 25.6797 63.7236 36.0174 63.0344" stroke="#625FAA" stroke-width="3" stroke-linecap="round"/>
<path d="M58.5079 76.7244C56.2207 77.6419 50.8568 78.7815 50.4496 81.9034C50.2199 83.6648 51.4162 85.5553 52.2786 86.9738C54.0297 89.8541 56.4111 92.3392 58.019 95.3037C58.3354 95.887 59.0983 97.3307 58.689 98.0562C57.8086 99.6169 55.0853 99.8802 53.5824 100.175C51.6706 100.55 49.5369 101.171 47.5704 101.171C46.4628 101.171 45.1937 98.1364 44.8179 97.2594" stroke="#625FAA" stroke-width="3" stroke-linecap="round"/>
<path d="M65.6792 78.6802C67.4055 84.1636 68.6128 90.49 68.6128 96.2817" stroke="#625FAA" stroke-width="3" stroke-linecap="round"/>
<path d="M63.0713 80.3099C64.9627 78.0895 68.5519 77.567 71.2201 76.7244" stroke="#625FAA" stroke-width="3" stroke-linecap="round"/>
<path d="M80.0209 81.9396C79.1457 84.2285 78.2995 86.8923 78.3911 89.3641C78.4157 90.0273 79.1386 92.7732 80.2563 92.6417C82.8046 92.3419 85.0513 88.3541 86.051 86.4124C86.9441 84.6778 87.5049 78.9105 87.8256 80.8349C88.3633 84.0607 88.2675 86.9222 89.7995 89.9435C91.1223 92.5524 92.1804 92.7604 94.6888 91.3922" stroke="#625FAA" stroke-width="3" stroke-linecap="round"/>
<path d="M101.208 84.2212C100.241 87.6594 100.515 92.0819 103.544 94.4163C108.37 98.1366 110.768 92.6039 110.534 88.3499C110.365 85.2851 108.107 80.9347 104.395 81.36C100.79 81.7731 100.23 86.5427 100.23 89.4364" stroke="#625FAA" stroke-width="3" stroke-linecap="round"/>
<path d="M111.639 69.8794C111.639 77.4244 110.823 85.542 112.78 92.9316C113.653 96.2295 117.579 92.234 119.136 91.0664" stroke="#625FAA" stroke-width="3" stroke-linecap="round"/>
<path d="M126.307 79.332C126.307 85.3972 125.63 91.8975 126.633 97.9114" stroke="#625FAA" stroke-width="3" stroke-linecap="round"/>
<path d="M126.958 72.1611C126.465 72.3255 124.735 74.5804 125.473 74.6238C126.028 74.6565 126.923 73.2174 126.958 72.7405C127.079 71.1176 125.329 71.0972 125.329 72.813" stroke="#625FAA" stroke-width="3" stroke-linecap="round"/>
<path d="M136.411 87.4809C139.907 85.7991 145.702 84.1794 146.697 79.8029C146.953 78.6752 147.018 77.2403 145.61 76.9417C143.311 76.454 140.416 78.2008 138.53 79.2958C136.451 80.503 136.398 82.5125 136.158 84.7284C135.763 88.3625 135.184 92.4106 138.023 95.2494C141.083 98.3099 147.233 92.9814 149.775 91.3923" stroke="#625FAA" stroke-width="3" stroke-linecap="round"/>
<path d="M159.228 80.9619C158.755 84.6792 157.848 88.4794 159.807 91.8995C162.028 95.7765 163.451 92.376 164.733 89.6359C165.269 88.4893 167.391 85.0375 166.018 83.7506C164.586 82.4081 161.771 81.9398 159.879 81.9398" stroke="#625FAA" stroke-width="3" stroke-linecap="round"/>
<path d="M171.614 67.5977C170.444 72.2044 169.898 77.1316 169.151 81.831C168.787 84.1242 168.791 86.8341 169.024 89.1649C169.184 90.7584 169.775 92.2597 171.36 92.841C172.995 93.4402 174.852 93.348 176.557 93.348C180.154 93.348 183.661 93.447 186.934 92.0442" stroke="#625FAA" stroke-width="3" stroke-linecap="round"/>
</svg>
