<svg width="32" height="40" viewBox="0 0 32 40" fill="none" xmlns="http://www.w3.org/2000/svg">
<g clip-path="url(#clip0_61_11548)">
<path fill-rule="evenodd" clip-rule="evenodd" d="M-32 32L-16 24L-16 40L2.62268e-06 32L16 24L1.02521e-05 32L16 40L16 24L32 32L32 16L16 8.00001L1.06337e-05 8.01099e-06L-16 8.00001L-32 16L-32 32ZM8.53553e-06 16L16 24L16 8.00001L8.53553e-06 16ZM8.53553e-06 16L-16 8.00001L-16 24L8.53553e-06 16ZM16 44L0 52L-16 44L5.91284e-06 36L16 44Z" fill="#625FAA"/>
</g>
<defs>
<clipPath id="clip0_61_11548">
<rect width="32" height="40" fill="white" transform="translate(32 40) rotate(-180)"/>
</clipPath>
</defs>
</svg>
